<svg width="29" height="27" viewBox="0 0 29 27" fill="none" xmlns="http://www.w3.org/2000/svg">
<path d="M13.0725 0.920677C13.4499 -0.240843 15.0931 -0.240843 15.4705 0.920678L17.8804 8.33751C18.0492 8.85696 18.5332 9.20865 19.0794 9.20865L26.8779 9.20865C28.0992 9.20865 28.607 10.7715 27.619 11.4893L21.3098 16.0732C20.868 16.3942 20.6831 16.9633 20.8519 17.4827L23.2617 24.8995C23.6391 26.0611 22.3097 27.0269 21.3217 26.3091L15.0125 21.7252C14.5707 21.4042 13.9723 21.4042 13.5305 21.7252L7.22134 26.3091C6.23329 27.0269 4.90388 26.0611 5.28128 24.8995L7.69115 17.4827C7.85993 16.9633 7.67504 16.3942 7.23317 16.0732L0.924036 11.4893C-0.0640118 10.7715 0.443778 9.20865 1.66507 9.20865L9.46359 9.20865C10.0098 9.20865 10.4938 8.85696 10.6626 8.33751L13.0725 0.920677Z" fill="#E37979"/>
</svg>
