<svg width="28" height="27" viewBox="0 0 28 27" fill="none" xmlns="http://www.w3.org/2000/svg">
<path opacity="0.4" d="M12.7522 0.920677C13.1296 -0.240843 14.7728 -0.240843 15.1502 0.920678L17.5601 8.33751C17.7289 8.85696 18.2129 9.20865 18.7591 9.20865L26.5576 9.20865C27.7789 9.20865 28.2867 10.7715 27.2987 11.4893L20.9895 16.0732C20.5477 16.3942 20.3628 16.9633 20.5315 17.4827L22.9414 24.8995C23.3188 26.0611 21.9894 27.0269 21.0014 26.3091L14.6922 21.7252C14.2504 21.4042 13.652 21.4042 13.2102 21.7252L6.90102 26.3091C5.91298 27.0269 4.58357 26.0611 4.96097 24.8995L7.37084 17.4827C7.53962 16.9633 7.35472 16.3942 6.91286 16.0732L0.603724 11.4893C-0.384324 10.7715 0.123466 9.20865 1.34476 9.20865L9.14328 9.20865C9.68946 9.20865 10.1735 8.85696 10.3423 8.33751L12.7522 0.920677Z" fill="#E37979"/>
</svg>
